<?xml version="1.0" encoding="utf-8"?>
<!-- Generator: Adobe Illustrator 25.2.3, SVG Export Plug-In . SVG Version: 6.00 Build 0)  -->
<svg version="1.1" id="Слой_1" xmlns="http://www.w3.org/2000/svg" xmlns:xlink="http://www.w3.org/1999/xlink" x="0px" y="0px"
	 viewBox="0 0 48 48" style="enable-background:new 0 0 48 48;" xml:space="preserve">
<style type="text/css">
	.st0{fill:#11101F;}
	.st1{fill:#FFFFFF;}
</style>
<ellipse class="st0" cx="23.9" cy="24" rx="23.4" ry="23.5"/>
<path class="st1" d="M31.3,39.8c-0.2,0-0.4,0-0.6,0c-3.2-0.2-6.3-1.4-8.8-3.3c-3.9-2.9-7.4-6.4-10.3-10.3c-1.9-2.6-3.1-5.6-3.3-8.8
	c-0.1-1.1,0.1-2.2,0.4-3.2c0.4-1,1-2,1.7-2.7l2-2c0.8-0.8,1.8-1.2,3-1.2s2.2,0.4,3,1.2l1.8,1.8c0.4,0.4,0.7,0.8,0.9,1.4
	s0.3,1,0.3,1.6s-0.1,1.1-0.3,1.6s-0.5,1-0.9,1.4l-1,1c-0.4,0.4-0.7,1-0.7,1.6c-0.1,0.6,0.1,1.2,0.4,1.7c2.1,3.1,4.8,5.8,7.9,7.9
	c0.5,0.3,1.1,0.5,1.7,0.4c0.6-0.1,1.2-0.3,1.6-0.7l1-1c0.4-0.4,0.8-0.7,1.4-0.9c0.5-0.2,1-0.3,1.6-0.3c0.5,0,1.1,0.1,1.6,0.3
	s1,0.5,1.4,0.9l1.8,1.8c0.4,0.4,0.7,0.8,0.9,1.4c0.2,0.5,0.3,1,0.3,1.6s-0.1,1.1-0.3,1.6c-0.2,0.5-0.5,1-0.9,1.4l-2,2
	c-0.7,0.7-1.5,1.3-2.4,1.6C33.3,39.6,32.3,39.8,31.3,39.8z M15.3,9.8c-0.3,0-0.7,0.1-1,0.2c-0.3,0.1-0.6,0.3-0.8,0.6l-2,2
	c-0.6,0.6-1.1,1.3-1.4,2.2c-0.3,0.8-0.4,1.7-0.4,2.5c0.2,2.9,1.3,5.7,3,8c2.9,3.8,6.2,7.2,10,10c2.3,1.7,5.1,2.8,8,3
	c0.9,0.1,1.7-0.1,2.5-0.4c0.8-0.3,1.5-0.8,2.2-1.4l2-2c0.5-0.5,0.8-1.1,0.8-1.8c0-0.7-0.3-1.3-0.8-1.8l-1.8-1.8
	c-0.5-0.5-1.1-0.7-1.8-0.7c-0.7,0-1.3,0.3-1.8,0.7l-1,1c-0.7,0.7-1.6,1.1-2.5,1.2c-1,0.1-1.9-0.1-2.7-0.7c-3.3-2.2-6.1-5-8.3-8.3
	c-0.5-0.8-0.8-1.8-0.7-2.7c0.1-1,0.5-1.9,1.2-2.5l1-1c0.5-0.5,0.8-1.1,0.8-1.8s-0.3-1.3-0.8-1.8l-1.8-1.8c-0.2-0.2-0.5-0.4-0.8-0.6
	C16,9.8,15.7,9.8,15.3,9.8L15.3,9.8z"/>
</svg>
